# xmcd
#
# Track frame offsets:
#  150
#  25695
#  30060
#  35280
#  41057
#  52547
#  64621
#  71229
#  81127
#  86613
#  90213
#  94344
#  112268
#  125819
#  153136
#  164609
#  175944
#  192086
#  200131
#  215354
#  228722
#  241592
#  257537
#  273595
#  295118
#  299294
#  320577
#
# Disc length: 4563 seconds
#
# Revision: 2
# Processed by: cddbd v1.4PL0 Copyright (c) Steve Scherf et al.
# Submitted via: AltoMP3_Maker 3.0
#
DISCID=7611d11b
DTITLE=Vysotskiy - Tom 7 - Ivan da Mar'ya
DYEAR=1900
DGENRE=
TTITLE0=Skomorohi na yarmarke
TTITLE1=Svadebnaya
TTITLE2=Soldatskaya pesnya pohodnaya
TTITLE3=Soldatskaya pesnya grustnaya
TTITLE4=Serenada Solovya-razboinika
TTITLE5=Vyezd Solovya-razboinika
TTITLE6=Soldat i prividenie
TTITLE7=Kuplety nechistoi sily
TTITLE8=Pesnya Mar'yi
TTITLE9=Ivan da Mar'ya
TTITLE10=Chastushki
TTITLE11="Kak po Volge-matushke"
TTITLE12="Ya nesla svoyu bedu"
TTITLE13=Zapovednik
TTITLE14=Olovyannye soldatiki
TTITLE15=Ballada o korotkoi shee
TTITLE16=Nado uiti
TTITLE17="Esli ya zaboleyu" (duet s L. Zykinoi)
TTITLE18="Kak po Volge-matushke" (duet s M. Vladi)
TTITLE19=Pesnya Mar'yi (duet s M. Vladi)
TTITLE20=Dorozhnaya istoriya
TTITLE21=Gorizont
TTITLE22=Chuzhaya koleya
TTITLE23=Smotriny
TTITLE24=Tsyganskie motivy
TTITLE25=Nedolyubil
TTITLE26=Koni priveredlivye
EXTD=
EXTT0=
EXTT1=
EXTT2=
EXTT3=
EXTT4=
EXTT5=
EXTT6=
EXTT7=
EXTT8=
EXTT9=
EXTT10=
EXTT11=
EXTT12=
EXTT13=
EXTT14=
EXTT15=
EXTT16=
EXTT17=
EXTT18=
EXTT19=
EXTT20=
EXTT21=
EXTT22=
EXTT23=
EXTT24=
EXTT25=
EXTT26=
PLAYORDER=
